<svg xmlns="http://www.w3.org/2000/svg" viewBox="0 0 97.38 60.55"><defs><style>.cls-1{fill:#abaeaf;}</style></defs><title>BR_ISOWhite</title><g id="Layer_2" data-name="Layer 2"><g id="Layer_1-2" data-name="Layer 1"><path class="cls-1" d="M88.67,3.31H71.32a35.2,35.2,0,0,1,0,53.92H88.67a8.7,8.7,0,0,0,8.71-8.7V12A8.71,8.71,0,0,0,88.67,3.31Z"/><path class="cls-1" d="M13.48,30.27a35.12,35.12,0,0,1,12.58-27H8.7A8.7,8.7,0,0,0,0,12V48.53a8.69,8.69,0,0,0,8.7,8.7H26.06A35.09,35.09,0,0,1,13.48,30.27ZM9.16,15.47a3.36,3.36,0,1,1,3.35-3.35A3.35,3.35,0,0,1,9.16,15.47Z"/><path class="cls-1" d="M78.62,30.27l-.12-1.9-.06-1.05c0-.38-.12-.8-.19-1.25A22.49,22.49,0,0,0,77.61,23a28.12,28.12,0,0,0-3.35-7.91A29.8,29.8,0,0,0,54.15,1.19,26.91,26.91,0,0,0,50.41.77c-.64,0-1.28-.08-1.93-.07l-2,.11c-.33,0-.66,0-1,.07l-1,.16c-.66.11-1.33.19-2,.33a31.42,31.42,0,0,0-3.93,1.16,30.54,30.54,0,0,0-3.85,1.71c-.62.34-1.22.73-1.83,1.1a14.45,14.45,0,0,0-1.78,1.23,32.15,32.15,0,0,0-3.34,2.86,34.11,34.11,0,0,0-2.89,3.42A28.77,28.77,0,0,0,20.74,21a31.37,31.37,0,0,0-1.51,9.29,31.44,31.44,0,0,0,1.51,9.3,28.77,28.77,0,0,0,4.2,8.13,34.11,34.11,0,0,0,2.89,3.42A30.88,30.88,0,0,0,31.17,54,14.53,14.53,0,0,0,33,55.21c.61.36,1.21.76,1.83,1.1A29.1,29.1,0,0,0,38.63,58a31.48,31.48,0,0,0,3.93,1.17c.66.14,1.33.22,2,.33l1,.16c.33,0,.66,0,1,.07l2,.1c.65,0,1.29,0,1.93-.06a26.91,26.91,0,0,0,3.74-.42A29.8,29.8,0,0,0,74.26,45.48a28.16,28.16,0,0,0,3.35-7.92,22.07,22.07,0,0,0,.64-3.08c.07-.45.15-.87.19-1.25l.06-1,.12-1.91s0,.66-.08,1.91l0,1c0,.39-.11.8-.17,1.26a21.65,21.65,0,0,1-.57,3.11,28.5,28.5,0,0,1-3.24,8A30.16,30.16,0,0,1,54.27,60a28.08,28.08,0,0,1-3.82.47c-.65,0-1.31.09-2,.09l-2-.09c-.34,0-.68,0-1-.06l-1-.15c-.68-.11-1.37-.19-2-.32a33.22,33.22,0,0,1-4-1.17,32.16,32.16,0,0,1-4-1.72c-.64-.35-1.26-.75-1.89-1.12a15.35,15.35,0,0,1-1.84-1.26,32.7,32.7,0,0,1-3.45-2.92,32.56,32.56,0,0,1-3-3.51,29.07,29.07,0,0,1-4.36-8.36,32.5,32.5,0,0,1-1.58-9.6,32.43,32.43,0,0,1,1.58-9.59,29.07,29.07,0,0,1,4.36-8.36,33.67,33.67,0,0,1,3-3.52,32.6,32.6,0,0,1,3.45-2.91A15.35,15.35,0,0,1,32.5,4.63c.63-.37,1.25-.77,1.89-1.12a30.72,30.72,0,0,1,4-1.72,31.53,31.53,0,0,1,4-1.17c.67-.13,1.36-.21,2-.32l1-.15c.33,0,.67,0,1-.06l2-.09c.67,0,1.33.06,2,.09a26.58,26.58,0,0,1,3.82.47A30.11,30.11,0,0,1,74.52,14.91a28.55,28.55,0,0,1,3.24,8,21.65,21.65,0,0,1,.57,3.11c.06.45.14.87.17,1.25l0,1.06C78.59,29.62,78.62,30.27,78.62,30.27Z"/><path class="cls-1" d="M35.6,21.86S42.16,18,50.39,13.4s15-8,15-8-6.56,3.91-14.8,8.46S35.6,21.86,35.6,21.86Z"/><path class="cls-1" d="M35.93,38.07s-.33-7.73-.42-17.26.09-17.27.09-17.27.33,7.73.43,17.26S35.93,38.07,35.93,38.07Z"/><path class="cls-1" d="M48.69,45.48s-6.84-3.83-15.1-8.84-14.83-9.29-14.83-9.29,6.83,3.83,15.1,8.84S48.69,45.48,48.69,45.48Z"/><path class="cls-1" d="M63,38.07s-6.79,4.06-15.32,8.79S32.11,55.2,32.11,55.2s6.79-4.07,15.32-8.8S63,38.07,63,38.07Z"/><path class="cls-1" d="M63,21.86s.31,7.72.37,17.24-.14,17.25-.14,17.25-.31-7.72-.38-17.24S63,21.86,63,21.86Z"/><path class="cls-1" d="M49.4,14.08s6.67,3.66,14.74,8.44,14.48,8.87,14.48,8.87S72,27.73,63.88,23,49.4,14.08,49.4,14.08Z"/></g></g></svg>